<?xml version="1.0" standalone="no"?>
<!DOCTYPE svg PUBLIC "-//W3C//DTD SVG 20010904//EN"
 "http://www.w3.org/TR/2001/REC-SVG-20010904/DTD/svg10.dtd">
<svg version="1.0" xmlns="http://www.w3.org/2000/svg"
 width="1368.000000pt" height="1376.000000pt" viewBox="0 0 1368.000000 1376.000000"
 preserveAspectRatio="xMidYMid meet">

<g transform="translate(0.000000,1376.000000) scale(0.100000,-0.100000)"
fill="#000000" stroke="none">
<path d="M6415 13704 c-143 -10 -473 -46 -625 -70 -760 -118 -1481 -358 -2150
-714 -1997 -1064 -3334 -3024 -3590 -5262 -11 -95 -20 -181 -20 -191 0 -16 87
-17 1737 -15 l1736 3 28 131 c108 512 340 1000 675 1419 112 141 367 395 509
508 521 417 1114 661 1775 732 265 29 665 16 925 -30 575 -101 1089 -334 1550
-701 141 -112 396 -367 509 -509 335 -419 567 -907 675 -1419 l28 -131 1736
-3 c1650 -2 1737 -1 1737 15 0 49 -45 399 -70 550 -292 1733 -1237 3280 -2651
4340 -892 668 -1932 1105 -3039 1277 -364 56 -523 68 -985 71 -236 1 -457 1
-490 -1z"/>
<path d="M6585 9108 c-894 -101 -1650 -741 -1900 -1608 -64 -221 -80 -345 -80
-620 0 -275 16 -399 80 -620 185 -643 656 -1177 1271 -1441 411 -176 880 -225
1324 -138 826 163 1504 795 1724 1609 87 321 100 703 35 1030 -125 631 -517
1176 -1081 1503 -265 154 -566 252 -883 287 -108 12 -378 11 -490 -2z"/>
<path d="M30 6293 c0 -10 9 -96 20 -191 214 -1872 1186 -3563 2701 -4699 891
-667 1933 -1105 3039 -1277 393 -61 535 -71 1050 -71 515 0 657 10 1050 71
1106 172 2148 610 3039 1277 1414 1060 2359 2607 2651 4340 25 151 70 501 70
550 0 16 -87 17 -1737 15 l-1736 -3 -28 -131 c-108 -512 -340 -1000 -675
-1419 -113 -142 -368 -397 -509 -509 -524 -417 -1113 -660 -1775 -731 -174
-19 -526 -19 -700 0 -661 71 -1253 315 -1775 731 -141 113 -395 367 -509 509
-335 418 -567 907 -675 1419 l-28 131 -1736 3 c-1650 2 -1737 1 -1737 -15z"/>
</g>
</svg>
